<svg width="20" height="20" viewBox="0 0 20 20" fill="none" xmlns="http://www.w3.org/2000/svg">
<path d="M13.9386 1.15625C14.6106 2.98553 15.0629 4.06633 15.7794 4.95801C16.4835 5.83422 17.5053 6.59968 19.4601 7.61328V9.38867C17.5195 10.3949 16.4224 11.2381 15.6789 12.1611C14.9332 13.0869 14.478 14.1711 13.9523 15.8066L12.048 15.1953C12.5888 13.5127 13.1338 12.1332 14.1212 10.9072C14.6255 10.2812 15.2293 9.71586 15.9718 9.16992C15.5984 9.13269 15.1913 9.09727 14.7589 9.06836C12.6564 8.9278 10.021 8.93431 7.72963 9.47363C5.76999 9.93495 4.6882 10.7092 4.08998 11.5068C3.48905 12.3081 3.28571 13.2532 3.31264 14.2227C3.33978 15.1996 3.60071 16.1489 3.8683 16.8721C4.00045 17.2292 4.13111 17.5208 4.2267 17.7207C4.27437 17.8204 4.3132 17.8969 4.33901 17.9463C4.35188 17.9709 4.36151 17.9893 4.36733 18C4.37011 18.0051 4.37319 18.0107 4.37319 18.0107L2.62905 18.9893L2.62807 18.9883L2.62709 18.9863C2.62595 18.9843 2.62385 18.9815 2.62221 18.9785C2.61889 18.9725 2.61485 18.9639 2.60951 18.9541C2.59885 18.9345 2.58441 18.9072 2.56655 18.873C2.53059 18.8043 2.48073 18.7068 2.42201 18.584C2.30475 18.3387 2.14914 17.9902 1.99233 17.5664C1.68181 16.7272 1.34899 15.5512 1.31362 14.2783C1.27804 12.9979 1.54454 11.5678 2.49037 10.3066C3.43896 9.04203 4.98193 8.06633 7.27162 7.52734C9.847 6.92117 12.7121 6.92744 14.8927 7.07324C14.9422 7.07655 14.9914 7.08054 15.0402 7.08398C14.74 6.80632 14.4681 6.51864 14.2208 6.21094C13.2708 5.02858 12.723 3.64593 12.0617 1.8457L13.9386 1.15625Z" fill="black"/>
</svg>
