<svg width="24" height="24" viewBox="0 0 24 24" fill="none" xmlns="http://www.w3.org/2000/svg">
<path d="M9 16H10V15.0328L9.03331 15.0006L9 16ZM9 22.5H8L9.94013 22.8408L9 22.5ZM11 19L11.6969 19.7171L11 19ZM7.86674 15.9622L7.83343 16.9617H7.83343L7.86674 15.9622ZM17.2351 15.9889L17.2514 16.9888L17.2351 15.9889ZM9 4V5H17V4V3H9V4ZM22 9H21V11.0658H22H23V9H22ZM4 11.9644H5V9H4H3V11.9644H4ZM17.2351 15.9889L17.2188 14.9891C16.798 14.996 16.3861 15 16 15V16V17C16.3995 17 16.8227 16.9958 17.2514 16.9888L17.2351 15.9889ZM9 16L9.03331 15.0006L7.90005 14.9628L7.86674 15.9622L7.83343 16.9617L8.96669 16.9994L9 16ZM9 22.5H10V16H9H8V22.5H9ZM16 16V15C14.5398 15 13.5215 15.3862 12.6283 16.0533C12.207 16.3679 11.8284 16.7338 11.4645 17.1034C11.0849 17.4887 10.737 17.8612 10.3031 18.2829L11 19L11.6969 19.7171C12.1486 19.2782 12.556 18.8453 12.8894 18.5068C13.2384 18.1524 13.5303 17.8759 13.8251 17.6557C14.3641 17.2532 14.9602 17 16 17V16ZM11 19L10.3031 18.2829C9.60621 18.9601 9.04415 19.9699 8.67737 20.724C8.48648 21.1165 8.33366 21.4713 8.22837 21.7283C8.17559 21.8572 8.13438 21.9624 8.10596 22.0365C8.09173 22.0736 8.08069 22.1029 8.07296 22.1237C8.0691 22.1341 8.06606 22.1423 8.06387 22.1482C8.06278 22.1512 8.0619 22.1536 8.06123 22.1555C8.06089 22.1564 8.06061 22.1571 8.06039 22.1578C8.06027 22.1581 8.06017 22.1584 8.06009 22.1586C8.06004 22.1587 8.05999 22.1589 8.05997 22.1589C8.05991 22.1591 8.05987 22.1592 9 22.5C9.94013 22.8408 9.94009 22.8409 9.94005 22.841C9.94005 22.841 9.94001 22.8411 9.93999 22.8412C9.93996 22.8413 9.93994 22.8413 9.93993 22.8414C9.93992 22.8414 9.93995 22.8413 9.94004 22.8411C9.94022 22.8406 9.9406 22.8395 9.94119 22.8379C9.94237 22.8347 9.94436 22.8293 9.94716 22.8218C9.95274 22.8068 9.96151 22.7835 9.97331 22.7527C9.99693 22.6911 10.0326 22.6 10.0791 22.4865C10.1724 22.2587 10.3079 21.9442 10.4759 21.5988C10.8269 20.8772 11.2648 20.1371 11.6969 19.7171L11 19ZM4 11.9644H3C3 14.661 5.13834 16.8718 7.83343 16.9617L7.86674 15.9622L7.90006 14.9628C6.283 14.9089 5 13.5824 5 11.9644H4ZM22 11.0658H21C21 13.2101 19.3205 14.9548 17.2188 14.9891L17.2351 15.9889L17.2514 16.9888C20.4869 16.936 23 14.2594 23 11.0658H22ZM17 4V5C19.2091 5 21 6.79086 21 9H22H23C23 5.68629 20.3137 3 17 3V4ZM9 4V3C5.68629 3 3 5.68629 3 9H4H5C5 6.79086 6.79086 5 9 5V4Z" fill="black"/>
</svg>
