<svg width="24" height="24" viewBox="0 0 24 24" fill="none" xmlns="http://www.w3.org/2000/svg">
<path d="M9.90234 7.99585C10.0978 8.69071 10.2513 9.08741 10.4788 9.41016C10.699 9.72263 11.0402 10.0358 11.7283 10.4436V12.0564C11.0273 12.4718 10.719 12.7518 10.5168 13.0393C10.2984 13.3499 10.148 13.7432 9.89282 14.5371L8.10718 13.9629C8.35196 13.2013 8.5766 12.5387 8.98315 11.9604C9.1686 11.6967 9.38302 11.4649 9.63135 11.2463C9.36725 11.0127 9.14075 10.7653 8.94653 10.4897C8.52411 9.89038 8.30219 9.23135 8.09766 8.50415L9.90234 7.99585Z" fill="black"/>
<path fill-rule="evenodd" clip-rule="evenodd" d="M12 3.5625C12.8687 3.5625 13.6714 3.8441 14.3225 4.32056L17.3284 4.91455C19.4616 5.33612 20.8494 7.40727 20.428 9.54053L18.9741 16.8984C18.5526 19.0317 16.4814 20.4194 14.3481 19.998L9.93311 19.1257C9.70834 19.0813 9.49255 19.0168 9.28564 18.9375H7.5C5.32538 18.9375 3.5625 17.1746 3.5625 15V7.5C3.5625 5.32538 5.32538 3.5625 7.5 3.5625H12ZM15.8159 6.52661C15.8951 6.83795 15.9375 7.16402 15.9375 7.5V15C15.9375 16.2598 15.3449 17.3803 14.4243 18.1011L14.7114 18.1582C15.8288 18.379 16.9134 17.6525 17.1343 16.5352L18.5881 9.17725C18.8089 8.05988 18.0824 6.97536 16.9651 6.75439L15.8159 6.52661ZM7.5 5.4375C6.36091 5.4375 5.4375 6.36091 5.4375 7.5V15C5.4375 16.1391 6.36091 17.0625 7.5 17.0625H12C13.1391 17.0625 14.0625 16.1391 14.0625 15V7.5C14.0625 6.36091 13.1391 5.4375 12 5.4375H7.5Z" fill="black"/>
</svg>
