<svg width="24" height="24" viewBox="0 0 24 24" fill="none" xmlns="http://www.w3.org/2000/svg">
<path fill-rule="evenodd" clip-rule="evenodd" d="M11.194 5.47126H6.98585C4.58986 5.47126 2.64844 7.40286 2.64844 9.7848V16.6865C2.64844 19.0684 4.58986 21 6.98585 21C9.5614 21 13.0591 21 15.6355 21C18.0306 21 19.9729 19.0684 19.9729 16.6865V12.2392C19.6181 12.9898 18.9953 13.5747 18.238 13.8904V16.6865C18.238 16.8469 18.2232 17.0048 18.1946 17.1566L14.349 13.2374C13.8589 12.7387 13.1875 12.4566 12.4865 12.4566C11.7848 12.4566 11.1133 12.7387 10.6241 13.2374L5.30293 18.6603C4.73994 18.1858 4.3834 17.4776 4.3834 16.6865V9.7848C4.3834 8.35529 5.54843 7.19668 6.98585 7.19668H10.4063C10.4948 6.54533 10.775 5.94834 11.194 5.47126ZM17.2778 18.6933L13.1061 14.4428C12.943 14.2763 12.7192 14.1822 12.4859 14.1822C12.2516 14.1822 12.0278 14.2763 11.8647 14.4428L7.12309 19.2748H15.6348C16.2577 19.2748 16.8302 19.0574 17.2778 18.6933ZM15.4199 4.19749L15.1892 5.20514C15.1059 5.56834 14.8187 5.85217 14.4518 5.93154L13.4082 6.15843C12.7012 6.31113 12.1963 6.93141 12.1903 7.65005C12.1851 8.36955 12.6813 8.99674 13.3857 9.16065L14.4587 9.40997C14.817 9.49366 15.0972 9.77231 15.1814 10.1295L15.4208 11.1544C15.5856 11.8557 16.2171 12.3509 16.9415 12.344C17.6658 12.338 18.2895 11.8333 18.4414 11.1285L18.6608 10.1114C18.7406 9.74384 19.0278 9.4557 19.3973 9.37374L20.4374 9.1434C21.1462 8.98638 21.6502 8.36092 21.6484 7.63883C21.6476 6.91675 21.1418 6.29301 20.4331 6.13772L19.3834 5.9091C19.0113 5.82801 18.7224 5.53814 18.6435 5.16718L18.4431 4.22165C18.2939 3.51423 17.6684 3.00609 16.9415 3.00005C16.2145 2.99402 15.5813 3.4918 15.4199 4.19749ZM7.41457 8.73107C8.23781 8.73107 8.90663 9.39708 8.90663 10.2167C8.90663 11.0362 8.23781 11.7022 7.41457 11.7022C6.59219 11.7022 5.92336 11.0362 5.92336 10.2167C5.92336 9.39708 6.59219 8.73107 7.41457 8.73107ZM16.9299 4.60353L17.1173 5.48781C17.322 6.45577 18.0785 7.21495 19.0509 7.42631L20.0381 7.64199L19.0596 7.85853C18.0949 8.07248 17.3437 8.82476 17.1355 9.78582L16.929 10.7426L16.7035 9.77719C16.4849 8.84547 15.7536 8.11648 14.8159 7.89908L13.8026 7.6627L14.7864 7.44961C15.7449 7.24169 16.4962 6.50149 16.7139 5.54992L16.9299 4.60353Z" fill="black"/>
</svg>
