<svg width="24" height="24" viewBox="0 0 24 24" fill="none" xmlns="http://www.w3.org/2000/svg">
<g clip-path="url(#clip0_3160_204521)">
<path d="M12.4463 23.2588C12.455 23.2601 12.4612 23.2657 12.4639 23.2764L12.4805 23.7031L12.4766 23.7207L12.4648 23.7363L12.3604 23.8105L12.3486 23.8145L12.334 23.8105L12.2295 23.7363L12.2197 23.7236L12.2148 23.7031L12.2314 23.2754L12.2354 23.2656C12.2407 23.259 12.2491 23.2574 12.2598 23.2607L12.3311 23.2959L12.3447 23.2998L12.3643 23.2959L12.4355 23.2607L12.4463 23.2588ZM11.9971 23.1475L12.1807 23.2393L12.1904 23.249L12.1934 23.2617L12.1768 23.6914L12.1729 23.7021L12.1631 23.71L11.9619 23.8037L11.9463 23.8057C11.9358 23.8016 11.9303 23.7931 11.9297 23.7812L11.9639 23.167L11.9697 23.1533C11.9726 23.1491 11.9774 23.1456 11.9824 23.1445C11.9873 23.1436 11.9928 23.1449 11.9971 23.1475ZM12.7119 23.1455C12.7217 23.1482 12.7281 23.1554 12.7314 23.167L12.7656 23.7812L12.7617 23.7959C12.7551 23.8043 12.745 23.807 12.7324 23.8037L12.5312 23.71L12.5234 23.7031L12.5186 23.6914L12.501 23.2617L12.5039 23.25L12.5137 23.2402L12.6982 23.1475L12.7119 23.1455ZM11.8516 2.05078C12.1256 2.05078 12.3912 2.14597 12.6025 2.32031C14.0397 3.515 15.356 4.84824 16.5332 6.2998C18.1732 8.3388 19.8516 11.106 19.8516 14C19.8515 16.1215 19.0088 18.1561 17.5088 19.6562C16.0085 21.1565 13.9733 22 11.8516 22C9.72983 22 7.69463 21.1565 6.19434 19.6562C4.69432 18.1561 3.85166 16.1215 3.85156 14C3.85156 11.106 5.52992 8.33883 7.16992 6.29883C8.34683 4.84766 9.66381 3.51474 11.1006 2.32031C11.312 2.14597 11.5776 2.05078 11.8516 2.05078ZM11.8516 4.30664C10.7217 5.2994 9.67667 6.38497 8.72754 7.55176C7.15657 9.50674 5.85156 11.817 5.85156 14C5.85166 15.5912 6.48425 17.1171 7.60938 18.2422C8.73457 19.3673 10.2604 20 11.8516 20C13.4428 20 14.9686 19.3673 16.0938 18.2422C17.2189 17.1171 17.8515 15.5912 17.8516 14C17.8516 11.817 16.5466 9.50674 14.9756 7.55176C14.0265 6.38497 12.9815 5.2994 11.8516 4.30664Z" fill="black"/>
</g>
<defs>
<clipPath id="clip0_3160_204521">
<rect width="24" height="24" fill="white"/>
</clipPath>
</defs>
</svg>
