<svg width="24" height="24" viewBox="0 0 24 24" fill="none" xmlns="http://www.w3.org/2000/svg">
<path d="M12.8652 11.3906H15.4741V13.1279H12.8652V15.7368H11.1279V13.1279H8.5249V11.3906H11.1279V8.7876H12.8652V11.3906Z" fill="black"/>
<path fill-rule="evenodd" clip-rule="evenodd" d="M14.7769 3.75C17.9428 3.75015 20.5094 6.31668 20.5095 9.48267V15.0425C20.5094 18.2085 17.9429 20.775 14.7769 20.7751H9.21704C6.05105 20.775 3.48453 18.2085 3.48438 15.0425V9.48267C3.48454 6.31669 6.05106 3.75017 9.21704 3.75H14.7769ZM9.21704 5.4873C7.01052 5.48747 5.22184 7.27615 5.22168 9.48267V15.0425C5.22183 17.249 7.01052 19.0377 9.21704 19.0378H14.7769C16.9834 19.0377 18.7721 17.249 18.7722 15.0425V9.48267C18.7721 7.27614 16.9834 5.48746 14.7769 5.4873H9.21704Z" fill="black"/>
</svg>
