<svg width="21" height="20" viewBox="0 0 21 20" fill="none" xmlns="http://www.w3.org/2000/svg">
<path fill-rule="evenodd" clip-rule="evenodd" d="M9.36426 2.80762C10.0549 1.63369 11.4725 1.10249 12.7646 1.53321C14.127 1.98747 14.9482 3.3742 14.6914 4.78712L14.1826 7.58106L16.335 7.73438C18.8899 7.91688 20.6178 10.4206 19.8818 12.874L19.2422 15.0039C18.3643 17.9302 15.4277 19.7291 12.4219 19.1826L5.82129 17.9824L5 17.834V10.2266L9.36426 2.80762ZM12.1318 3.43067C11.7352 3.29847 11.3 3.46107 11.0879 3.8213L7 10.7715V16.1641L12.7803 17.2158C14.784 17.58 16.7418 16.3803 17.3271 14.4297L17.9658 12.2988C18.3336 11.0723 17.4697 9.82074 16.1924 9.7295L11.8164 9.417L12.7236 4.42969C12.8025 3.99585 12.5502 3.57011 12.1318 3.43067Z" fill="black"/>
<path d="M3 18.499H1V10.499H3V18.499Z" fill="black"/>
</svg>
