<svg width="32" height="32" viewBox="0 0 32 32" fill="none" xmlns="http://www.w3.org/2000/svg">
<rect x="5" y="7" width="22" height="20" rx="7" stroke="black" stroke-width="2.5"/>
<mask id="path-2-outside-1_2965_174633" maskUnits="userSpaceOnUse" x="10" y="13" width="12" height="9" fill="black">
<rect fill="white" x="10" y="13" width="12" height="9"/>
<path d="M12.9 14H14.15V21H12.75V15.84C12.11 16.46 11.34 16.86 10.51 16.98L10.25 15.66C11.28 15.54 12.31 14.95 12.9 14ZM18.3888 16.25C20.0588 16.25 21.0488 17.13 21.0488 18.71C21.0488 20.16 19.9488 21.15 18.1888 21.15C16.7988 21.15 15.7788 20.56 15.2488 19.48L16.5488 18.83C16.7788 19.47 17.3588 19.9 18.1888 19.9C19.1188 19.9 19.6488 19.41 19.6488 18.65C19.6488 17.95 19.2088 17.45 18.2288 17.45C17.7188 17.45 17.1588 17.61 16.7588 18.03L15.8488 17.49L16.2488 14H20.6488V15.25H17.3288L17.1788 16.48C17.5088 16.34 17.9088 16.25 18.3888 16.25Z"/>
</mask>
<path d="M12.9 14H14.15V21H12.75V15.84C12.11 16.46 11.34 16.86 10.51 16.98L10.25 15.66C11.28 15.54 12.31 14.95 12.9 14ZM18.3888 16.25C20.0588 16.25 21.0488 17.13 21.0488 18.71C21.0488 20.16 19.9488 21.15 18.1888 21.15C16.7988 21.15 15.7788 20.56 15.2488 19.48L16.5488 18.83C16.7788 19.47 17.3588 19.9 18.1888 19.9C19.1188 19.9 19.6488 19.41 19.6488 18.65C19.6488 17.95 19.2088 17.45 18.2288 17.45C17.7188 17.45 17.1588 17.61 16.7588 18.03L15.8488 17.49L16.2488 14H20.6488V15.25H17.3288L17.1788 16.48C17.5088 16.34 17.9088 16.25 18.3888 16.25Z" fill="black"/>
<path d="M12.9 14V13.8H12.7888L12.7301 13.8945L12.9 14ZM14.15 14H14.35V13.8H14.15V14ZM14.15 21V21.2H14.35V21H14.15ZM12.75 21H12.55V21.2H12.75V21ZM12.75 15.84H12.95V15.3678L12.6108 15.6964L12.75 15.84ZM10.51 16.98L10.3138 17.0187L10.3505 17.2051L10.5386 17.1779L10.51 16.98ZM10.25 15.66L10.2269 15.4613L10.012 15.4864L10.0538 15.6987L10.25 15.66ZM12.9 14V14.2H14.15V14V13.8H12.9V14ZM14.15 14H13.95V21H14.15H14.35V14H14.15ZM14.15 21V20.8H12.75V21V21.2H14.15V21ZM12.75 21H12.95V15.84H12.75H12.55V21H12.75ZM12.75 15.84L12.6108 15.6964C11.9977 16.2903 11.2653 16.6687 10.4814 16.7821L10.51 16.98L10.5386 17.1779C11.4147 17.0513 12.2223 16.6297 12.8892 15.9836L12.75 15.84ZM10.51 16.98L10.7062 16.9413L10.4462 15.6213L10.25 15.66L10.0538 15.6987L10.3138 17.0187L10.51 16.98ZM10.25 15.66L10.2731 15.8587C11.3587 15.7322 12.4452 15.1114 13.0699 14.1055L12.9 14L12.7301 13.8945C12.1748 14.7886 11.2013 15.3478 10.2269 15.4613L10.25 15.66ZM15.2488 19.48L15.1594 19.3011L14.9818 19.3899L15.0693 19.5681L15.2488 19.48ZM16.5488 18.83L16.737 18.7624L16.6609 18.5504L16.4594 18.6511L16.5488 18.83ZM16.7588 18.03L16.6568 18.202L16.7938 18.2833L16.9037 18.1679L16.7588 18.03ZM15.8488 17.49L15.6501 17.4672L15.6354 17.5959L15.7468 17.662L15.8488 17.49ZM16.2488 14V13.8H16.0704L16.0501 13.9772L16.2488 14ZM20.6488 14H20.8488V13.8H20.6488V14ZM20.6488 15.25V15.45H20.8488V15.25H20.6488ZM17.3288 15.25V15.05H17.1517L17.1303 15.2258L17.3288 15.25ZM17.1788 16.48L16.9803 16.4558L16.9384 16.7992L17.2569 16.6641L17.1788 16.48ZM18.3888 16.25V16.45C19.1905 16.45 19.8014 16.661 20.2101 17.035C20.6162 17.4067 20.8488 17.9631 20.8488 18.71H21.0488H21.2488C21.2488 17.8769 20.9865 17.2033 20.4801 16.74C19.9763 16.2789 19.2572 16.05 18.3888 16.05V16.25ZM21.0488 18.71H20.8488C20.8488 19.3811 20.596 19.9344 20.1479 20.3226C19.6971 20.713 19.0323 20.95 18.1888 20.95V21.15V21.35C19.1053 21.35 19.8705 21.092 20.4098 20.6249C20.9516 20.1556 21.2488 19.4889 21.2488 18.71H21.0488ZM18.1888 21.15V20.95C16.8626 20.95 15.9196 20.3928 15.4284 19.3919L15.2488 19.48L15.0693 19.5681C15.6381 20.7272 16.7351 21.35 18.1888 21.35V21.15ZM15.2488 19.48L15.3383 19.6589L16.6383 19.0089L16.5488 18.83L16.4594 18.6511L15.1594 19.3011L15.2488 19.48ZM16.5488 18.83L16.3606 18.8976C16.6212 19.6227 17.2806 20.1 18.1888 20.1V19.9V19.7C17.437 19.7 16.9365 19.3173 16.737 18.7624L16.5488 18.83ZM18.1888 19.9V20.1C18.6873 20.1 19.1042 19.9686 19.3992 19.7106C19.6975 19.4498 19.8488 19.0791 19.8488 18.65H19.6488H19.4488C19.4488 18.9809 19.3352 19.2352 19.1359 19.4094C18.9335 19.5864 18.6203 19.7 18.1888 19.7V19.9ZM19.6488 18.65H19.8488C19.8488 18.2573 19.7242 17.8985 19.4413 17.6399C19.1606 17.3833 18.751 17.25 18.2288 17.25V17.45V17.65C18.6867 17.65 18.9871 17.7667 19.1714 17.9351C19.3535 18.1015 19.4488 18.3427 19.4488 18.65H19.6488ZM18.2288 17.45V17.25C17.6812 17.25 17.0621 17.4216 16.614 17.8921L16.7588 18.03L16.9037 18.1679C17.2556 17.7984 17.7565 17.65 18.2288 17.65V17.45ZM16.7588 18.03L16.8609 17.858L15.9509 17.318L15.8488 17.49L15.7468 17.662L16.6568 18.202L16.7588 18.03ZM15.8488 17.49L16.0475 17.5128L16.4475 14.0228L16.2488 14L16.0501 13.9772L15.6501 17.4672L15.8488 17.49ZM16.2488 14V14.2H20.6488V14V13.8H16.2488V14ZM20.6488 14H20.4488V15.25H20.6488H20.8488V14H20.6488ZM20.6488 15.25V15.05H17.3288V15.25V15.45H20.6488V15.25ZM17.3288 15.25L17.1303 15.2258L16.9803 16.4558L17.1788 16.48L17.3774 16.5042L17.5274 15.2742L17.3288 15.25ZM17.1788 16.48L17.2569 16.6641C17.5611 16.5351 17.9345 16.45 18.3888 16.45V16.25V16.05C17.8832 16.05 17.4565 16.1449 17.1007 16.2959L17.1788 16.48Z" fill="black" mask="url(#path-2-outside-1_2965_174633)"/>
<path d="M11.0039 3V11" stroke="black" stroke-width="2.5"/>
<path d="M21.0039 11L21.0039 3" stroke="black" stroke-width="2.5"/>
</svg>
