<svg width="20" height="20" viewBox="0 0 20 20" fill="none" xmlns="http://www.w3.org/2000/svg">
<path d="M6.28223 17.9766C5.60762 16.1401 5.17951 15.1344 4.52148 14.3154C3.88196 13.5196 2.93235 12.793 1 11.791V9.12695C2.91141 8.13583 3.93996 7.33119 4.62207 6.48438C5.30737 5.63357 5.74069 4.62401 6.2627 3L9.11816 3.91797C8.57359 5.61221 8.00673 7.06531 6.95898 8.36621C6.79463 8.57025 6.61987 8.76686 6.43555 8.95898H19.3779V11.959H6.44336C6.5881 12.1138 6.72719 12.272 6.85938 12.4365C7.86778 13.6915 8.44004 15.1486 9.09863 16.9414L6.28223 17.9766Z" fill="black"/>
</svg>
