<svg width="32" height="32" viewBox="0 0 32 32" fill="none" xmlns="http://www.w3.org/2000/svg">
<path d="M16 11.1802L14.9073 11.7873H17.0927L16 11.1802ZM21 7.18021L20.6409 5.98292L20.6408 5.98292L21 7.18021ZM11 7.18021L10.6738 8.3869V8.3869L11 7.18021ZM16 28.1802L14.9073 28.7872H17.0927L16 28.1802ZM21 24.1802L20.6409 22.9829H20.6408L21 24.1802ZM11 24.1802L11.3262 22.9735H11.3262L11 24.1802ZM28 24.1802L27.9376 25.4286L29.25 25.4942V24.1802H28ZM4 24.1802H2.75L2.75 25.5258L4.09191 25.4268L4 24.1802ZM16 27H17.25L17.25 10H16H14.75L14.75 27H16ZM24 18V16.75H20V18V19.25H24V18ZM12 18V16.75H8V18V19.25H12V18ZM24 13V11.75H20V13V14.25H24V13ZM12 13V11.75H8V13V14.25H12V13ZM16 11.1802L17.0927 11.7873C17.7899 10.5323 18.3446 9.87696 18.9178 9.44598C19.4998 9.00841 20.1992 8.72547 21.3592 8.3775L21 7.18021L20.6408 5.98292C19.4305 6.346 18.3705 6.72973 17.4155 7.44773C16.4517 8.17232 15.6916 9.16143 14.9073 10.5732L16 11.1802ZM11 7.18021L10.6738 8.3869C11.9642 8.7357 12.6376 9.01713 13.1639 9.431C13.6951 9.84866 14.1854 10.4878 14.9073 11.7873L16 11.1802L17.0927 10.5732C16.3331 9.20591 15.6463 8.2027 14.7093 7.46582C13.7674 6.72515 12.6816 6.33992 11.3262 5.97352L11 7.18021ZM21 7.18021L21.3591 8.3775C21.3362 8.3844 21.4274 8.3618 21.7199 8.34091C21.9755 8.32266 22.3061 8.31031 22.6939 8.30347C23.4676 8.28981 24.4183 8.29884 25.35 8.31747C26.2793 8.33606 27.179 8.36397 27.8471 8.38727C28.1809 8.39891 28.4563 8.40939 28.6481 8.41694C28.7439 8.42072 28.8189 8.42376 28.8697 8.42585C28.8951 8.4269 28.9144 8.42771 28.9274 8.42826C28.9338 8.42853 28.9387 8.42873 28.9419 8.42887C28.9435 8.42894 28.9447 8.42899 28.9454 8.42902C28.9458 8.42904 28.9461 8.42905 28.9463 8.42906C28.9464 8.42906 28.9464 8.42906 28.9465 8.42906C28.9465 8.42906 28.9465 8.42906 29 7.18021C29.0535 5.93136 29.0535 5.93135 29.0534 5.93135C29.0533 5.93135 29.0532 5.93134 29.0531 5.93134C29.0528 5.93133 29.0525 5.93131 29.052 5.93129C29.0511 5.93125 29.0497 5.9312 29.048 5.93112C29.0444 5.93097 29.0392 5.93075 29.0324 5.93046C29.0188 5.92989 28.9987 5.92905 28.9726 5.92798C28.9204 5.92582 28.844 5.92272 28.7465 5.91888C28.5515 5.9112 28.2723 5.90058 27.9342 5.88879C27.2585 5.86522 26.3457 5.83688 25.4 5.81797C24.4567 5.79911 23.4699 5.78939 22.6498 5.80386C22.2408 5.81107 21.8605 5.8245 21.5418 5.84726C21.2601 5.86739 20.9138 5.90103 20.6409 5.98292L21 7.18021ZM11 7.18021L11.3262 5.97352C10.7832 5.82673 9.94745 5.77805 9.14614 5.75949C8.2953 5.73977 7.31826 5.75304 6.40256 5.77865C5.48432 5.80432 4.61526 5.84278 3.97657 5.87475C3.65692 5.89076 3.39425 5.90517 3.21111 5.9156C3.11952 5.92082 3.04778 5.92505 2.9987 5.92799C2.97415 5.92946 2.95527 5.9306 2.9424 5.93139C2.93597 5.93178 2.93103 5.93209 2.92765 5.9323C2.92596 5.9324 2.92465 5.93248 2.92374 5.93254C2.92328 5.93257 2.92292 5.93259 2.92266 5.93261C2.92253 5.93261 2.92241 5.93262 2.92234 5.93263C2.92225 5.93263 2.92218 5.93264 3 7.18021C3.07782 8.42779 3.0778 8.42779 3.07781 8.42779C3.07784 8.42779 3.07787 8.42778 3.07793 8.42778C3.07807 8.42777 3.0783 8.42776 3.07863 8.42774C3.0793 8.42769 3.08035 8.42763 3.08179 8.42754C3.08466 8.42736 3.08907 8.42709 3.09498 8.42673C3.1068 8.42601 3.1246 8.42493 3.14803 8.42352C3.19489 8.42072 3.26427 8.41663 3.35334 8.41156C3.53153 8.4014 3.7884 8.3873 4.10156 8.37163C4.72849 8.34024 5.57818 8.30268 6.47244 8.27767C7.36924 8.25259 8.29845 8.24052 9.08823 8.25882C9.92755 8.27826 10.4668 8.33095 10.6738 8.3869L11 7.18021ZM16 28.1802L17.0927 28.7872C17.7899 27.5323 18.3446 26.8769 18.9178 26.446C19.4998 26.0084 20.1992 25.7255 21.3592 25.3775L21 24.1802L20.6408 22.9829C19.4305 23.346 18.3705 23.7297 17.4155 24.4477C16.4517 25.1723 15.6916 26.1614 14.9073 27.5731L16 28.1802ZM11 24.1802L10.6738 25.3869C11.9642 25.7357 12.6376 26.0171 13.1639 26.431C13.6951 26.8486 14.1854 27.4878 14.9073 28.7872L16 28.1802L17.0927 27.5731C16.3331 26.2059 15.6463 25.2027 14.7093 24.4658C13.7674 23.7251 12.6816 23.3399 11.3262 22.9735L11 24.1802ZM21 24.1802L21.3591 25.3775C21.3454 25.3816 21.4317 25.3603 21.6863 25.3402C21.9119 25.3224 22.2014 25.3102 22.5406 25.3034C23.2175 25.2899 24.0407 25.2988 24.8462 25.3174C25.6491 25.3359 26.4226 25.3637 26.9963 25.387C27.2828 25.3986 27.5188 25.409 27.683 25.4166C27.765 25.4203 27.829 25.4234 27.8724 25.4254C27.894 25.4265 27.9105 25.4273 27.9215 25.4278C27.927 25.4281 27.9311 25.4283 27.9338 25.4284C27.9352 25.4285 27.9362 25.4285 27.9368 25.4286C27.9371 25.4286 27.9373 25.4286 27.9375 25.4286C27.9375 25.4286 27.9376 25.4286 27.9376 25.4286C27.9376 25.4286 27.9376 25.4286 28 24.1802C28.0624 22.9317 28.0623 22.9317 28.0623 22.9317C28.0622 22.9317 28.0621 22.9317 28.062 22.9317C28.0618 22.9317 28.0614 22.9317 28.061 22.9317C28.0602 22.9316 28.059 22.9316 28.0575 22.9315C28.0544 22.9313 28.0499 22.9311 28.044 22.9308C28.0322 22.9302 28.0149 22.9294 27.9924 22.9283C27.9473 22.9262 27.8815 22.923 27.7975 22.9192C27.6296 22.9115 27.3891 22.9008 27.0975 22.889C26.5149 22.8654 25.7259 22.837 24.9038 22.818C24.0843 22.7991 23.22 22.7893 22.4906 22.8039C22.1267 22.8112 21.7834 22.8248 21.4895 22.848C21.2245 22.8689 20.9046 22.9038 20.6409 22.9829L21 24.1802ZM11 24.1802L11.3262 22.9735C10.7904 22.8286 10.0279 22.7784 9.30612 22.7595C8.54504 22.7396 7.68981 22.7531 6.89697 22.7788C6.10155 22.8046 5.35568 22.8432 4.80947 22.8753C4.53603 22.8914 4.31183 22.9059 4.1555 22.9164C4.07732 22.9216 4.01607 22.9259 3.97407 22.9289C3.95306 22.9303 3.93687 22.9315 3.92578 22.9323C3.92023 22.9327 3.91596 22.933 3.913 22.9332C3.91152 22.9333 3.91037 22.9334 3.90955 22.9335C3.90914 22.9335 3.90881 22.9335 3.90857 22.9336C3.90844 22.9336 3.90832 22.9336 3.90826 22.9336C3.90816 22.9336 3.90809 22.9336 4 24.1802C4.09191 25.4268 4.09188 25.4268 4.09186 25.4268C4.09188 25.4268 4.09189 25.4268 4.09193 25.4268C4.09203 25.4268 4.0922 25.4268 4.09246 25.4268C4.09297 25.4268 4.09381 25.4267 4.09498 25.4266C4.09732 25.4264 4.10096 25.4262 4.10587 25.4258C4.11568 25.4251 4.13055 25.424 4.1502 25.4227C4.1895 25.4199 4.24787 25.4158 4.32301 25.4108C4.47332 25.4007 4.69053 25.3866 4.95615 25.371C5.48807 25.3398 6.21095 25.3024 6.97803 25.2775C7.74769 25.2525 8.54871 25.2406 9.24076 25.2587C9.97207 25.2778 10.4596 25.329 10.6738 25.3869L11 24.1802ZM4 24.1802H5.25L5.25 6L4 6L2.75 6L2.75 24.1802H4ZM28 24.1802H29.25V6H28H26.75V24.1802H28Z" fill="black"/>
</svg>
