<svg width="15" height="24" viewBox="0 0 15 24" fill="none" xmlns="http://www.w3.org/2000/svg">
<path fill-rule="evenodd" clip-rule="evenodd" d="M15 0V24H13.5322C12.2753 24 11.0642 23.5264 10.1406 22.6738L0.964844 14.2041C0.32188 13.6104 0.000259817 12.8057 0 12.001V11.999C0.000260325 11.1943 0.321881 10.3896 0.964844 9.7959L10.1406 1.32617C11.0642 0.473624 12.2753 0 13.5322 0H15ZM10.9775 10C9.87297 10 8.97754 10.8954 8.97754 12C8.97754 13.1046 9.87297 14 10.9775 14C12.0821 14 12.9775 13.1046 12.9775 12C12.9775 10.8954 12.0821 10 10.9775 10Z" fill="#D9D9D9"/>
</svg>
