<svg width="24" height="24" viewBox="0 0 24 24" fill="none" xmlns="http://www.w3.org/2000/svg">
<path d="M21 8.02937C20.9998 7.47728 20.5521 7.02937 20 7.02937V16.9512C20 17.2165 19.8946 17.4707 19.707 17.6583C19.5195 17.8458 19.2652 17.9512 19 17.9512C15.4921 17.9512 13.4913 19.3721 12.8877 20.0294H20C20.5523 20.0294 21 19.5817 21 19.0294V8.02937ZM6 15.9864C8.14281 16.1355 9.81584 16.7504 11 17.4434V6.05574C9.7463 4.88551 8.33249 4.37 7.18652 4.15046C6.73581 4.06413 6.33073 4.02446 6 4.00886V15.9864ZM18 4.00886C17.6693 4.02447 17.2642 4.06413 16.8135 4.15046C15.6675 4.37002 14.2537 4.88557 13 6.05574V17.4434C14.1842 16.7504 15.8572 16.1355 18 15.9864V4.00886ZM3 19.0294C3 19.5817 3.44772 20.0294 4 20.0294H11.1123C10.5087 19.3721 8.50792 17.9512 5 17.9512C4.73478 17.9512 4.48051 17.8458 4.29297 17.6583C4.10544 17.4707 4 17.2165 4 16.9512V7.02937C3.44785 7.02937 3.00023 7.47728 3 8.02937V19.0294ZM23 19.0294C23 20.6862 21.6569 22.0294 20 22.0294H4C2.34315 22.0294 1 20.6862 1 19.0294V8.02937C1.00023 6.37271 2.34328 5.02937 4 5.02937V3.02937C4.00015 2.52516 4.37563 2.09971 4.87598 2.03718H4.87988C4.88149 2.03699 4.88364 2.03645 4.88574 2.0362C4.88992 2.03571 4.89527 2.03493 4.90137 2.03425C4.91358 2.0329 4.92959 2.03127 4.94922 2.02937C4.98892 2.02553 5.0441 2.02117 5.1123 2.01667C5.24858 2.0077 5.43974 1.99913 5.67578 2.00007C6.14734 2.00196 6.80443 2.04021 7.56348 2.18562C8.86909 2.43577 10.4998 3.00877 12 4.27156C13.5002 3.00881 15.1309 2.43578 16.4365 2.18562C17.1956 2.0402 17.8527 2.00197 18.3242 2.00007C18.5603 1.99912 18.7514 2.0077 18.8877 2.01667C18.9559 2.02117 19.0111 2.02553 19.0508 2.02937C19.0704 2.03127 19.0864 2.0329 19.0986 2.03425C19.1047 2.03493 19.1101 2.03571 19.1143 2.0362C19.1164 2.03645 19.1185 2.03699 19.1201 2.03718H19.123C19.6234 2.09971 19.9999 2.52516 20 3.02937V5.02937C21.6567 5.02937 22.9998 6.37271 23 8.02937V19.0294Z" fill="black"/>
</svg>
