<svg width="90" height="90" viewBox="0 0 90 90" fill="none" xmlns="http://www.w3.org/2000/svg">
<path fill-rule="evenodd" clip-rule="evenodd" d="M22.624 46.7578C10.684 46.7578 1.00146 56.4703 1.00146 68.3953C1.00146 71.1328 2.09271 73.7578 4.03147 75.7078C5.97021 77.6578 8.60271 78.7453 11.344 78.7453C21.7802 78.7453 41.9815 78.7453 52.414 78.7453C55.159 78.7453 57.7877 77.6578 59.7302 75.7078C61.669 73.7578 62.7565 71.1328 62.7565 68.3953C62.7565 56.4703 53.0777 46.7578 41.134 46.7578C35.1902 46.7578 28.5715 46.7578 22.624 46.7578ZM22.624 54.2578H41.134C48.934 54.2578 55.2565 60.5953 55.2565 68.3953C55.2565 69.1453 54.9565 69.8953 54.424 70.4203C53.8915 70.9453 53.1677 71.2453 52.414 71.2453H11.344C10.5902 71.2453 9.87022 70.9453 9.33397 70.4203C8.80147 69.8953 8.50146 69.1453 8.50146 68.3953C8.50521 60.5953 14.8277 54.2578 22.624 54.2578ZM56.359 42.5203L66.6152 52.7953C67.3915 53.5828 68.4565 53.9953 69.5515 53.9578C70.6465 53.9203 71.6777 53.3953 72.3902 52.5703L88.6915 33.5578C90.1052 31.9078 89.9102 29.3953 88.2602 28.0078C86.6102 26.5828 84.124 26.7703 82.7102 28.4203L69.1765 44.2078L61.9277 36.9703C60.3902 35.4328 57.8965 35.4328 56.359 36.9703C54.8215 38.5078 54.8215 40.9828 56.359 42.5203ZM31.9127 11.3203C23.674 11.3203 16.9802 18.0328 16.9802 26.2828C16.9802 34.5328 23.674 41.2453 31.9127 41.2453C40.1552 41.2453 46.849 34.5328 46.849 26.2828C46.849 18.0328 40.1552 11.3203 31.9127 11.3203ZM31.9127 18.8203C36.019 18.8203 39.349 22.1578 39.349 26.2828C39.349 30.4078 36.019 33.7453 31.9127 33.7453C27.8102 33.7453 24.4802 30.4078 24.4802 26.2828C24.4802 22.1578 27.8102 18.8203 31.9127 18.8203Z" fill="#fff"/>
</svg>
